REM DIRINDEX 1\2,1\3,1\4,1\5
REM DIRNAME folder01,folder02,folder03,folder04,folder05
TITLE ""
FILE "1Q_t_1019-1028.mp3" MP3
  TRACK 01 AUDIO
    TITLE "3:cjc004_3961"
    INDEX 01 00:00:00
  TRACK 02 AUDIO
    TITLE "0:"
    INDEX 01 00:01:19
  TRACK 03 AUDIO
    TITLE "4:cjc004_3962"
    INDEX 01 00:01:48
  TRACK 04 AUDIO
    TITLE "0:"
    INDEX 01 00:02:61
  TRACK 05 AUDIO
    TITLE "5:cjc004_3963"
    INDEX 01 00:03:17
  TRACK 06 AUDIO
    TITLE "0:"
    INDEX 01 00:08:46
  TRACK 07 AUDIO
    TITLE "3:cjc004_3964"
    INDEX 01 00:09:32
  TRACK 08 AUDIO
    TITLE "0:"
    INDEX 01 00:10:43
  TRACK 09 AUDIO
    TITLE "4:cjc004_3965"
    INDEX 01 00:11:01
  TRACK 10 AUDIO
    TITLE "0:"
    INDEX 01 00:12:22
  TRACK 11 AUDIO
    TITLE "5:cjc004_3966"
    INDEX 01 00:12:52
  TRACK 12 AUDIO
    TITLE "0:"
    INDEX 01 00:17:18
  TRACK 13 AUDIO
    TITLE "3:cjc004_3967"
    INDEX 01 00:18:01
  TRACK 14 AUDIO
    TITLE "0:"
    INDEX 01 00:19:16
  TRACK 15 AUDIO
    TITLE "4:cjc004_3968"
    INDEX 01 00:19:44
  TRACK 16 AUDIO
    TITLE "0:"
    INDEX 01 00:20:59
  TRACK 17 AUDIO
    TITLE "5:cjc004_3969"
    INDEX 01 00:21:15
  TRACK 18 AUDIO
    TITLE "0:"
    INDEX 01 00:28:12
  TRACK 19 AUDIO
    TITLE "3:cjc004_3970"
    INDEX 01 00:28:70
  TRACK 20 AUDIO
    TITLE "0:"
    INDEX 01 00:30:12
  TRACK 21 AUDIO
    TITLE "4:cjc004_3971"
    INDEX 01 00:30:46
  TRACK 22 AUDIO
    TITLE "0:"
    INDEX 01 00:31:65
  TRACK 23 AUDIO
    TITLE "5:cjc004_3972"
    INDEX 01 00:32:13
  TRACK 24 AUDIO
    TITLE "0:"
    INDEX 01 00:36:58
  TRACK 25 AUDIO
    TITLE "3:cjc004_3973"
    INDEX 01 00:37:40
  TRACK 26 AUDIO
    TITLE "0:"
    INDEX 01 00:38:43
  TRACK 27 AUDIO
    TITLE "4:cjc004_3974"
    INDEX 01 00:38:71
  TRACK 28 AUDIO
    TITLE "0:"
    INDEX 01 00:40:09
  TRACK 29 AUDIO
    TITLE "5:cjc004_3975"
    INDEX 01 00:40:36
  TRACK 30 AUDIO
    TITLE "0:"
    INDEX 01 00:45:24
  TRACK 31 AUDIO
    TITLE "3:cjc004_3976"
    INDEX 01 00:46:06
  TRACK 32 AUDIO
    TITLE "0:"
    INDEX 01 00:47:38
  TRACK 33 AUDIO
    TITLE "4:cjc004_3977"
    INDEX 01 00:47:60
  TRACK 34 AUDIO
    TITLE "0:"
    INDEX 01 00:49:04
  TRACK 35 AUDIO
    TITLE "5:cjc004_3978"
    INDEX 01 00:49:29
  TRACK 36 AUDIO
    TITLE "0:"
    INDEX 01 00:56:00
  TRACK 37 AUDIO
    TITLE "3:cjc004_3979"
    INDEX 01 00:56:61
  TRACK 38 AUDIO
    TITLE "0:"
    INDEX 01 00:57:72
  TRACK 39 AUDIO
    TITLE "4:cjc004_3980"
    INDEX 01 00:58:26
  TRACK 40 AUDIO
    TITLE "0:"
    INDEX 01 01:00:04
  TRACK 41 AUDIO
    TITLE "5:cjc004_3981"
    INDEX 01 01:00:31
  TRACK 42 AUDIO
    TITLE "0:"
    INDEX 01 01:05:40
  TRACK 43 AUDIO
    TITLE "3:cjc004_3982"
    INDEX 01 01:06:18
  TRACK 44 AUDIO
    TITLE "0:"
    INDEX 01 01:07:41
  TRACK 45 AUDIO
    TITLE "4:cjc004_3983"
    INDEX 01 01:07:66
  TRACK 46 AUDIO
    TITLE "0:"
    INDEX 01 01:09:05
  TRACK 47 AUDIO
    TITLE "5:cjc004_3984"
    INDEX 01 01:09:32
  TRACK 48 AUDIO
    TITLE "0:"
    INDEX 01 01:13:49
  TRACK 49 AUDIO
    TITLE "3:cjc004_3985"
    INDEX 01 01:14:25
  TRACK 50 AUDIO
    TITLE "0:"
    INDEX 01 01:15:44
  TRACK 51 AUDIO
    TITLE "4:cjc004_3986"
    INDEX 01 01:15:68
  TRACK 52 AUDIO
    TITLE "0:"
    INDEX 01 01:16:71
  TRACK 53 AUDIO
    TITLE "5:cjc004_3987"
    INDEX 01 01:17:14
  TRACK 54 AUDIO
    TITLE "0:"
    INDEX 01 01:22:05
  TRACK 55 AUDIO
    TITLE "3:cjc004_3988"
    INDEX 01 01:22:58
  TRACK 56 AUDIO
    TITLE "0:"
    INDEX 01 01:24:00
  TRACK 57 AUDIO
    TITLE "4:cjc004_3989"
    INDEX 01 01:24:26
  TRACK 58 AUDIO
    TITLE "0:"
    INDEX 01 01:25:39
  TRACK 59 AUDIO
    TITLE "5:cjc004_3990"
    INDEX 01 01:25:64
  TRACK 60 AUDIO
    TITLE "0:"
    INDEX 01 01:30:13
